# xmcd
#
# Track frame offsets:
#	150
#	16713
#	31827
#	51093
#	66691
#	82529
#
# Disc length: 1321 seconds
#
# Revision: 0
# Processed by: cddbd v1.5.2PL0 Copyright (c) Steve Scherf et al.
# Submitted via: EasyCDDAExtractor 2010.6.0.0
#
DISCID=3c052706
DTITLE=Iza Trojanowska - Gdy cos chce
DYEAR=2015
DGENRE=pop
TTITLE0=Na chwile
TTITLE1=Gdy cos chce
TTITLE2=Kogo dzis na zwykla milosc stac
TTITLE3=7 nocy bez ciebie
TTITLE4=Slodkich snow
TTITLE5=Tak jak dzis
EXTD=
EXTT0=
EXTT1=
EXTT2=
EXTT3=
EXTT4=
EXTT5=
PLAYORDER=
